# AST/ASF file generated using VICON BodyLanguage
# -----------------------------------------------
:version 1.10
:name VICON
:units
  mass 1.0
  length 0.45
  angle deg
:documentation
   .ast/.asf automatically generated from VICON data using
   VICON BodyBuilder and BodyLanguage model FoxedUp or BRILLIANT.MOD
:root
   order TX TY TZ RX RY RZ
   axis XYZ
   position 0 0 0  
   orientation 0 0 0 
:bonedata
  begin
     id 1 
     name lhipjoint
     direction 0.645897 -0.709066 0.282916 
     length 2.50918 
     axis 0 0 0  XYZ
  end
  begin
     id 2 
     name lfemur
     direction 0.34202 -0.939693 0  
     length 6.85725  
     axis 0 0 20  XYZ
    dof rx ry rz
    limits (-160.0 20.0)
           (-70.0 70.0)
           (-60.0 70.0)
  end
  begin
     id 3 
     name ltibia
     direction 0.34202 -0.939693 0   
     length 8.01778   
     axis 0 0 20   XYZ
    dof rx
    limits (-10.0 170.0)
  end
  begin
     id 4 
     name lfoot
     direction 0.0796011 -0.218702 0.972539   
     length 2.13962   
     axis -90 7.62852e-016 20   XYZ
    dof rx rz
    limits (-45.0 90.0)
           (-70.0 20.0)
  end
  begin
     id 5 
     name ltoes
     direction 1.53548e-011 -4.21881e-011 1   
     length 1.07476   
     axis -90 7.62852e-016 20   XYZ
    dof rx
    limits (-90.0 20.0)
  end
  begin
     id 6 
     name rhipjoint
     direction -0.63101 -0.720537 0.287493   
     length 2.46923  
     axis 0 0 0  XYZ 
  end
  begin
     id 7 
     name rfemur
     direction -0.34202 -0.939693 0   
     length 6.81957   
     axis 0 0 -20   XYZ
    dof rx ry rz
    limits (-160.0 20.0)
           (-70.0 70.0)
           (-70.0 60.0)
  end
  begin
     id 8 
     name rtibia
     direction -0.34202 -0.939693 0   
     length 8.15152   
     axis 0 0 -20   XYZ
    dof rx
    limits (-10.0 170.0)
 end
 begin
     id 9 
     name rfoot
     direction -0.105819 -0.290734 0.950934   
     length 2.14588  
     axis -90 -7.62852e-016 -20   XYZ
    dof rx rz
    limits (-45.0 90.0)
           (-20.0 70.0)
  end
  begin
     id 10 
     name rtoes
     direction -1.53512e-011 -4.22005e-011 1   
     length 1.0703   
     axis -90 -7.62852e-016 -20   XYZ
    dof rx
    limits (-90.0 20.0)
  end
  begin
     id 11 
     name lowerback
     direction 0.0114933 0.999236 0.0373542   
     length 1.91711   
     axis 0 0 0   XYZ
    dof rx ry rz
    limits (-20.0 45.0)
           (-30.0 30.0)
           (-30.0 30.0)
  end
  begin
     id 12 
     name upperback
     direction 0.00911529 0.998099 0.0609554   
     length 1.90888   
     axis 0 0 0   XYZ
    dof rx ry rz
    limits (-20.0 45.0)
           (-30.0 30.0)
           (-30.0 30.0)
  end
  begin
     id 13 
     name thorax
     direction 0.00357322 0.99911 0.0420379   
     length 1.90942   
     axis 0 0 0   XYZ
    dof rx ry rz
    limits (-20.0 45.0)
           (-30.0 30.0)
           (-30.0 30.0)
  end
  begin
     id 14 
     name lowerneck
     direction -0.0589311 0.997882 0.0275448   
     length 1.83956   
     axis 0 0 0   XYZ
    dof rx ry rz
    limits (-20.0 45.0)
           (-30.0 30.0)
           (-30.0 30.0)
  end
  begin
     id 15 
     name upperneck
     direction 0.0362633 0.960055 -0.277453   
     length 1.82031   
     axis 0 0 0   XYZ
    dof rx ry rz
    limits (-20.0 45.0)
           (-30.0 30.0)
           (-30.0 30.0)
  end
  begin
     id 16
     name head
     direction 0.0166719 0.995328 -0.0951042  
     length 1.86084  
     axis 0 0 0   XYZ
    dof rx ry rz
    limits (-20.0 45.0)
           (-30.0 30.0)
           (-30.0 30.0)
  end
  begin
     id 17 
     name lclavicle
     direction 0.90319 0.426238 0.0506919  
     length 3.17828  
     axis 0 0 0   XYZ
    dof ry rz
    limits (-20.0 10.0)
           (0.0 20.0)
  end
  begin
     id 18 
     name lhumerus
     direction 1 -4.48953e-011 6.78797e-028   
     length 5.43592   
     axis 180 -30 -90   XYZ
    dof rx ry rz
    limits (-60.0 90.0)
           (-90.0 90.0)
           (-90.0 90.0)
  end
  begin
     id 19
     name lradius
     direction 1 -4.48969e-011 7.02702e-027   
     length 3.2546   
     axis 180 -30 -90   XYZ
    dof rx
    limits (-10.0 170.0)
  end
  begin
     id 20
     name lwrist
     direction 1 -4.48975e-011 1.29807e-026   
     length 1.6273   
     axis -8.50346e-015 90 90   XYZ
    dof ry
    limits (-180.0 0.0)
 end
  begin
     id 21 
     name lhand
     direction 1 -4.48917e-011 2.59615e-026   
     length 0.498244   
     axis -1.65656e-014 90 90   XYZ
    dof rx rz
    limits (-90.0 90.0)
           (-45.0 45.0)
  end
  begin
     id 22 
     name lfingers
     direction 1 -4.48885e-011 5.1923e-026   
     length 0.401697   
     axis -3.31313e-014 90 90   XYZ
    dof rx
    limits (0.0 90.0)
  end
  begin
     id 23
     name lthumb
     direction 0.707107 -6.34946e-011 0.707107   
     length 0.576759   
     axis -90 45 2.85299e-015   XYZ
    dof rx rz
    limits (-45.0 45.0)
           (-45.0 45.0)
  end
  begin
     id 24 
     name rclavicle
     direction -0.908603 0.391432 0.145676   
     length 3.15477  
     axis 0 0 0   XYZ 
    dof ry rz
    limits (-10.0 20.0)
           (-20.0 0.0)
  end
  begin
     id 25 
     name rhumerus
     direction -1 -4.4898e-011 1.02852e-027  
     length 5.3383   
     axis 180 30 90   XYZ
    dof rx ry rz
    limits (-90.0 60.0)
           (-90.0 90.0)
           (-90.0 90.0)
  end
  begin
     id 26 
     name rradius
     direction -1 -4.48968e-011 7.05567e-027   
     length 3.23148   
     axis 180 30 90   XYZ
    dof rx
    limits (-10.0 170.0)
  end
  begin
     id 27 
     name rwrist
     direction -1 -4.48927e-011 1.29807e-026   
     length 1.61574   
     axis -8.50346e-015 -90 -90   XYZ
    dof ry
    limits (-180.0 0.0)
  end
  begin
     id 28
     name rhand
     direction -1 -4.48905e-011 2.59615e-026   
     length 0.463641   
     axis -1.65656e-014 -90 -90   XYZ
    dof rx rz
    limits (-90.0 90.0)
           (-45.0 45.0)
  end
  begin
     id 29
     name rfingers
     direction -1 -4.49167e-011 5.1923e-026   
     length 0.373799   
     axis -3.31313e-014 -90 -90   XYZ
    dof rx
    limits (0.0 90.0)
  end
  begin
     id 30
     name rthumb
     direction -0.707107 -6.34954e-011 0.707107   
     length 0.536703   
     axis -90 -45 -2.85299e-015   XYZ
    dof rx rz
    limits (-45.0 45.0)
           (-45.0 45.0)
  end
:hierarchy
  begin
    root lhipjoint rhipjoint lowerback
    lhipjoint lfemur
    lfemur ltibia
    ltibia lfoot
    lfoot ltoes
    rhipjoint rfemur
    rfemur rtibia
    rtibia rfoot
    rfoot rtoes
    lowerback upperback
    upperback thorax
    thorax lowerneck lclavicle rclavicle
    lowerneck upperneck
    upperneck head
    lclavicle lhumerus
    lhumerus lradius
    lradius lwrist
    lwrist lhand lthumb
    lhand lfingers
    rclavicle rhumerus
    rhumerus rradius
    rradius rwrist
    rwrist rhand rthumb
    rhand rfingers
  end

#!OML:ASF F:\VICON\USERDATA\INSTALL\rory3\rory3.ASF
:FULLY-SPECIFIED
:DEGREES
104
root 3.90415 17.4621 3.52965 20.4634 -8.36623 -2.60642
lowerback -10.3984 1.50223 6.58499
upperback -11.7143 1.6195 0.810626
thorax -6.45173 0.330055 -2.73979
lowerneck -4.69243 17.0297 11.9374
upperneck 15.6281 20.7878 7.46992
head 5.99709 11.2663 2.03994
rclavicle -5.75979e-014 5.56597e-015
rhumerus -8.86789 -24.4745 21.4658
rradius 117.816
rwrist -55.1941
rhand -5.69256 -46.2307
rfingers 7.12502
rthumb 20.1279 -75.208
lclavicle -5.75979e-014 5.56597e-015
lhumerus 31.7719 28.0073 -16.8345
lradius 28.7854
lwrist 23.8351
lhand -23.9528 -24.3274
lfingers 7.12502
lthumb 2.52296 5.63748
rfemur 0.596467 5.46457 1.86598
rtibia 6.79242
rfoot -8.70127 -30.6278
rtoes 24.7738
lfemur -28.4972 -1.95828 -23.9472
ltibia 26.2423
lfoot -16.124 6.79642
ltoes 9.96445
105
root 3.90405 17.4619 3.52755 20.4379 -8.39269 -2.84412
lowerback -10.266 1.54686 6.728
upperback -11.7415 1.6873 0.897092
thorax -6.55124 0.353633 -2.72715
lowerneck -4.45139 16.9204 12.0687
upperneck 15.6772 20.689 7.27608
head 6.00795 11.213 1.94432
rclavicle -1.2921e-014 -1.35174e-014
rhumerus -8.73278 -24.3192 21.2603
rradius 117.666
rwrist -55.1664
rhand -5.24568 -45.8984
rfingers 7.12502
rthumb 20.5573 -74.83
lclavicle -1.2921e-014 -1.35174e-014
lhumerus 31.7158 27.7891 -16.7986
lradius 28.7958
lwrist 23.7897
lhand -25.1322 -24.082
lfingers 7.12502
lthumb 1.38386 5.89324
rfemur 0.633282 5.58519 2.11821
rtibia 6.76706
rfoot -11.219 -29.9821
rtoes 29.2557
lfemur -28.5536 -1.84241 -23.7101
ltibia 26.424
lfoot -16.0199 6.81372
ltoes 9.5035
106
root 3.9072 17.4615 3.52577 20.3223 -8.24573 -3.04181
lowerback -10.1046 1.5541 6.95534
upperback -11.7444 1.70226 0.942078
thorax -6.64382 0.343267 -2.8085
lowerneck -3.96432 16.7628 12.2327
upperneck 15.4829 20.5867 6.96704
head 5.91502 11.1417 1.77295
rclavicle 5.96354e-015 -3.18055e-014
rhumerus -8.70039 -24.166 21.2039
rradius 117.589
rwrist -55.2864
rhand -4.39888 -45.7382
rfingers 7.12502
rthumb 21.3709 -74.5797
lclavicle 5.96354e-015 -3.18055e-014
lhumerus 31.8325 27.8067 -16.508
lradius 28.7712
lwrist 23.5571
lhand -25.7065 -23.3166
lfingers 7.12502
lthumb 0.82926 6.66155
rfemur 0.780456 5.563 2.38958
rtibia 6.83324
rfoot -10.0765 -30.3486
rtoes 27.9668
lfemur -28.5143 -1.70687 -23.5203
ltibia 26.596
lfoot -16.338 6.63495
ltoes 10.0438
107
root 3.91164 17.461 3.52089 20.2749 -8.02101 -3.01818
lowerback -10.1191 1.52787 7.02875
upperback -11.7078 1.66031 0.904018
thorax -6.59822 0.317741 -2.89122
lowerneck -3.65886 16.5599 12.2998
upperneck 15.291 20.4078 6.6345
head 5.84189 11.0283 1.61581
rclavicle -4.96962e-015 -3.77691e-014
rhumerus -8.69475 -24.1424 21.093
rradius 117.441
rwrist -55.1397
rhand -3.89214 -45.7624
rfingers 7.12502
rthumb 21.8575 -74.5479
lclavicle -4.96962e-015 -3.77691e-014
lhumerus 31.6444 27.4527 -16.742
lradius 28.881
lwrist 23.6677
lhand -25.8681 -22.818
lfingers 7.12502
lthumb 0.673143 7.16068
rfemur 0.82943 5.36762 2.45096
rtibia 6.95387
rfoot -8.89751 -30.6893
rtoes 26.2721
lfemur -28.5556 -1.73763 -23.53
ltibia 26.7263
lfoot -16.3958 6.4527
ltoes 10.2186
108
root 3.91374 17.4614 3.51849 20.2929 -7.87869 -2.9571
lowerback -10.2957 1.51207 7.0167
upperback -11.627 1.61956 0.868496
thorax -6.41317 0.305011 -2.92035
lowerneck -3.44869 16.3957 12.3341
upperneck 15.1514 20.2583 6.36044
head 5.79147 10.9338 1.49369
rclavicle -2.22639e-014 1.31198e-014
rhumerus -8.70998 -24.0749 20.9488
rradius 117.288
rwrist -54.8309
rhand -4.26579 -45.7113
rfingers 7.12502
rthumb 21.4987 -74.5382
lclavicle -2.22639e-014 1.31198e-014
lhumerus 31.4723 27.279 -16.9106
lradius 28.8888
lwrist 23.6778
lhand -25.5889 -23.3032
lfingers 7.12502
lthumb 0.942751 6.67448
rfemur 0.676075 5.21242 2.43878
rtibia 7.27994
rfoot -9.22211 -30.5711
rtoes 26.7967
lfemur -28.6276 -1.85072 -23.5617
ltibia 26.7999
lfoot -16.4671 6.39053
ltoes 10.4514
109
root 3.91593 17.4603 3.51725 20.2813 -7.74441 -2.98283
lowerback -10.4474 1.48338 7.07619
upperback -11.5062 1.55921 0.864336
thorax -6.20065 0.28039 -2.95762
lowerneck -3.44472 16.3512 12.3625
upperneck 15.2095 20.204 6.2814
head 5.8197 10.9056 1.4672
rclavicle 1.41137e-014 3.1408e-014
rhumerus -8.73799 -23.9591 20.7834
rradius 117.184
rwrist -54.6938
rhand -4.93692 -45.811
rfingers 7.12502
rthumb 20.854 -74.7102
lclavicle 1.41137e-014 3.1408e-014
lhumerus 31.4819 27.6284 -16.6995
lradius 28.8213
lwrist 23.5804
lhand -23.8917 -24.3555
lfingers 7.12502
lthumb 2.58195 5.60863
rfemur 0.393395 5.10564 2.50255
rtibia 7.88722
rfoot -7.33903 -30.8834
rtoes 23.6491
lfemur -28.6381 -1.90583 -23.5142
ltibia 26.8161
lfoot -16.5359 6.30059
ltoes 10.7584
110
root 3.91633 17.4597 3.50893 20.2323 -7.71169 -2.92993
lowerback -10.3207 1.41397 6.96947
upperback -11.4662 1.48286 0.869699
thorax -6.23363 0.250026 -2.89881
lowerneck -3.69383 16.3651 12.3912
upperneck 15.5634 20.165 6.30339
head 5.97506 10.9036 1.51288
rclavicle -1.14301e-015 -2.94201e-014
rhumerus -8.69155 -23.8169 20.5983
rradius 117.111
rwrist -54.757
rhand -4.75505 -45.8275
rfingers 7.12502
rthumb 21.0288 -74.7074
lclavicle -1.14301e-015 -2.94201e-014
lhumerus 31.2617 27.6537 -16.7567
lradius 28.9232
lwrist 23.7164
lhand -22.7138 -24.6359
lfingers 7.12502
lthumb 3.71945 5.31141
rfemur 0.0549522 5.07127 2.45101
rtibia 8.52224
rfoot -5.22302 -31.1084
rtoes 19.9826
lfemur -28.638 -1.93134 -23.5612
ltibia 26.8135
lfoot -16.4285 6.26097
ltoes 10.654
111
root 3.91407 17.462 3.49395 20.1553 -7.83723 -2.89748
lowerback -9.94714 1.37745 6.78515
upperback -11.526 1.48089 0.902259
thorax -6.50752 0.253769 -2.7687
lowerneck -3.76909 16.3214 12.4308
upperneck 15.8661 20.0841 6.27234
head 6.09158 10.8763 1.51917
rclavicle -6.5102e-015 4.77083e-015
rhumerus -8.63521 -23.5727 20.5104
rradius 117.084
rwrist -54.9019
rhand -4.71955 -45.6875
rfingers 7.12502
rthumb 21.0628 -74.5636
lclavicle -6.5102e-015 4.77083e-015
lhumerus 30.8793 27.1186 -17.0944
lradius 29.0943
lwrist 24.1045
lhand -23.1941 -24.0451
lfingers 7.12502
lthumb 3.25563 5.90976
rfemur -0.343667 5.19492 2.38007
rtibia 9.14549
rfoot -6.96642 -30.7392
rtoes 23.0587
lfemur -28.6285 -1.97625 -23.574
ltibia 26.8129
lfoot -16.2847 6.42095
ltoes 10.4385
112
root 3.91307 17.4629 3.48462 20.1402 -7.93741 -2.94713
lowerback -9.78245 1.3897 6.71928
upperback -11.5621 1.51814 0.947054
thorax -6.63657 0.274486 -2.68606
lowerneck -3.72892 16.2119 12.3359
upperneck 16.0739 19.9392 6.30646
head 6.1355 10.8121 1.53459
rclavicle -1.00386e-014 -1.98785e-015
rhumerus -8.61182 -23.3887 20.4476
rradius 117.06
rwrist -54.9118
rhand -4.59587 -45.5131
rfingers 7.12502
rthumb 21.1817 -74.376
lclavicle -1.00386e-014 -1.98785e-015
lhumerus 30.6762 26.7092 -17.2536
lradius 29.1459
lwrist 24.316
lhand -23.5476 -23.5312
lfingers 7.12502
lthumb 2.91426 6.42863
rfemur -0.811874 5.30729 2.38826
rtibia 9.83994
rfoot -7.60428 -30.4535
rtoes 24.0699
lfemur -28.6447 -1.97737 -23.5171
ltibia 26.8053
lfoot -16.2369 6.55267
ltoes 10.3434
113
root 3.91223 17.4618 3.47853 20.1768 -7.92747 -2.96821
lowerback -9.67703 1.38932 6.66402
upperback -11.6356 1.53381 0.968832
thorax -6.77649 0.281558 -2.6338
lowerneck -3.7814 16.119 12.0916
upperneck 16.3467 19.7934 6.49303
head 6.1841 10.7531 1.62122
rclavicle 8.24956e-015 1.98785e-015
rhumerus -8.59502 -23.1739 20.3403
rradius 117.015
rwrist -54.7989
rhand -4.03369 -45.368
rfingers 7.12502
rthumb 21.7216 -74.1693
lclavicle 8.24956e-015 1.98785e-015
lhumerus 30.9623 26.8806 -16.7337
lradius 28.9715
lwrist 23.6518
lhand -23.5054 -23.6985
lfingers 7.12502
lthumb 2.95503 6.26081
rfemur -1.20783 5.29504 2.40626
rtibia 10.4363
rfoot -6.10959 -30.5629
rtoes 21.2805
lfemur -28.7194 -1.91729 -23.5108
ltibia 26.8376
lfoot -16.2173 6.54628
ltoes 9.91945
